# xmcd
#
# Track frame offsets:
#	150
#	13216
#	30287
#	49639
#	63042
#	75422
#	90032
#	106599
#	120924
#	134937
#	148721
#	162965
#	174668
#	184815
#	197889
#	210932
#	224350
#	240035
#	254477
#	269083
#
# Disc length: 3810 seconds
#
# Revision: 1
# Processed by: cddbd v1.5.2PL0 Copyright (c) Steve Scherf et al.
# Submitted via: audiograbber 1.83.01
#
DISCID=080ee014
DTITLE=Dr. Hook - Greatest Hooks
DYEAR=1900
DGENRE=Classic Rock
TTITLE0=The Cover of The Rolling Stone
TTITLE1=Sylvia' Mother
TTITLE2=Carry me Carrie
TTITLE3=The Millionaire
TTITLE4=Only Sixteen
TTITLE5=A little Bit more
TTITLE6=More like the Movies
TTITLE7=If not You
TTITLE8=A couple more Years
TTITLE9=Walk right in
TTITLE10=Sleeping Late
TTITLE11=All the Time in the World
TTITLE12=You make my pants want to get up and Dance
TTITLE13=Sharing the Nigth Together
TTITLE14=When you're in Love with A beautiful Woman
TTITLE15=Better love next Time
TTITLE16=Sexy Eyes
TTITLE17=Years from now
TTITLE18=Girls can get in
TTITLE19=Baby make her blue Jeans Talk
EXTD=
EXTT0=
EXTT1=
EXTT2=
EXTT3=
EXTT4=
EXTT5=
EXTT6=
EXTT7=
EXTT8=
EXTT9=
EXTT10=
EXTT11=
EXTT12=
EXTT13=
EXTT14=
EXTT15=
EXTT16=
EXTT17=
EXTT18=
EXTT19=
PLAYORDER=
